<?xml version="1.0" encoding="UTF-8" standalone="no"?>
<!-- Created with Inkscape (http://www.inkscape.org/) -->

<svg
   xmlns:dc="http://purl.org/dc/elements/1.1/"
   xmlns:cc="http://creativecommons.org/ns#"
   xmlns:rdf="http://www.w3.org/1999/02/22-rdf-syntax-ns#"
   xmlns:svg="http://www.w3.org/2000/svg"
   xmlns="http://www.w3.org/2000/svg"
   xmlns:sodipodi="http://sodipodi.sourceforge.net/DTD/sodipodi-0.dtd"
   xmlns:inkscape="http://www.inkscape.org/namespaces/inkscape"
   width="14.633006mm"
   height="14.633006mm"
   viewBox="0 0 14.633006 14.633006"
   version="1.1"
   id="svg862"
   inkscape:version="0.92.5 (2060ec1f9f, 2020-04-08)"
   sodipodi:docname="icon_mail_circle.svg">
  <defs
     id="defs856" />
  <sodipodi:namedview
     id="base"
     pagecolor="#ffffff"
     bordercolor="#666666"
     borderopacity="1.0"
     inkscape:pageopacity="0.0"
     inkscape:pageshadow="2"
     inkscape:zoom="11.2"
     inkscape:cx="18.824551"
     inkscape:cy="25.447071"
     inkscape:document-units="mm"
     inkscape:current-layer="layer1"
     showgrid="false"
     inkscape:window-width="1848"
     inkscape:window-height="1016"
     inkscape:window-x="72"
     inkscape:window-y="27"
     inkscape:window-maximized="1" />
  <metadata
     id="metadata859">
    <rdf:RDF>
      <cc:Work
         rdf:about="">
        <dc:format>image/svg+xml</dc:format>
        <dc:type
           rdf:resource="http://purl.org/dc/dcmitype/StillImage" />
        <dc:title></dc:title>
      </cc:Work>
    </rdf:RDF>
  </metadata>
  <g
     inkscape:label="Layer 1"
     inkscape:groupmode="layer"
     id="layer1"
     transform="translate(-94.737071,-141.51683)">
    <circle
       style="fill:#999999;fill-opacity:0.72941176;stroke:none;stroke-width:0.26499999;stroke-miterlimit:4;stroke-dasharray:none;stroke-opacity:0.72941176"
       id="path10"
       cx="102.05357"
       cy="148.83333"
       r="7.316503" />
    <g
       style="fill:#ffffff;fill-opacity:1"
       id="g29"
       transform="matrix(0.26458333,0,0,0.26458333,80.160912,143.2068)">
      <g
         style="fill:#ffffff;fill-opacity:1"
         id="g2345"
         transform="matrix(1.396674,0,0,1.396674,47.827073,-13.651223)">
        <path
           id="path2334"
           d="m 13,16 h 24 c 0.18,0 0.349766,0.02031 0.509766,0.07031 l -9.830078,9.820313 c -1.48,1.48 -3.889141,1.48 -5.369141,0 L 12.490234,16.070312 C 12.650234,16.020312 12.82,16 13,16 Z M 11.070312,17.490234 18.589844,25 11.070312,32.509766 C 11.020312,32.349766 11,32.18 11,32 V 18 c 0,-0.18 0.02031,-0.349766 0.07031,-0.509766 z m 27.859376,0 C 38.979688,17.650234 39,17.82 39,18 v 14 c 0,0.18 -0.02031,0.349766 -0.07031,0.509766 L 31.400391,25 Z M 20,26.410156 l 0.890625,0.900391 c 1.13,1.13 2.619609,1.689453 4.099609,1.689453 1.49,0 2.96961,-0.559453 4.09961,-1.689453 l 0.90039,-0.900391 7.519532,7.519532 C 37.349766,33.979688 37.18,34 37,34 H 13 c -0.18,0 -0.349766,-0.02031 -0.509766,-0.07031 z"
           inkscape:connector-curvature="0"
           style="fill:#ffffff;fill-opacity:1" />
      </g>
    </g>
  </g>
</svg>
