<?xml version="1.0" encoding="UTF-8" standalone="no"?>
<!-- Created with Inkscape (http://www.inkscape.org/) -->

<svg
   xmlns:dc="http://purl.org/dc/elements/1.1/"
   xmlns:cc="http://creativecommons.org/ns#"
   xmlns:rdf="http://www.w3.org/1999/02/22-rdf-syntax-ns#"
   xmlns:svg="http://www.w3.org/2000/svg"
   xmlns="http://www.w3.org/2000/svg"
   xmlns:sodipodi="http://sodipodi.sourceforge.net/DTD/sodipodi-0.dtd"
   xmlns:inkscape="http://www.inkscape.org/namespaces/inkscape"
   width="14.633006mm"
   height="14.633006mm"
   viewBox="0 0 14.633006 14.633006"
   version="1.1"
   id="svg862"
   inkscape:version="0.92.5 (2060ec1f9f, 2020-04-08)"
   sodipodi:docname="icon_mail_circle_2.svg">
  <defs
     id="defs856" />
  <sodipodi:namedview
     id="base"
     pagecolor="#ffffff"
     bordercolor="#666666"
     borderopacity="1.0"
     inkscape:pageopacity="0.0"
     inkscape:pageshadow="2"
     inkscape:zoom="11.2"
     inkscape:cx="35.673918"
     inkscape:cy="22.474994"
     inkscape:document-units="mm"
     inkscape:current-layer="layer1"
     showgrid="false"
     inkscape:window-width="1848"
     inkscape:window-height="1016"
     inkscape:window-x="72"
     inkscape:window-y="27"
     inkscape:window-maximized="1" />
  <metadata
     id="metadata859">
    <rdf:RDF>
      <cc:Work
         rdf:about="">
        <dc:format>image/svg+xml</dc:format>
        <dc:type
           rdf:resource="http://purl.org/dc/dcmitype/StillImage" />
        <dc:title></dc:title>
      </cc:Work>
    </rdf:RDF>
  </metadata>
  <g
     inkscape:label="Layer 1"
     inkscape:groupmode="layer"
     id="layer1"
     transform="translate(-90.279009,-146.40011)">
    <circle
       style="fill:#999999;fill-opacity:0.72941176;stroke:none;stroke-width:0.26499999;stroke-miterlimit:4;stroke-dasharray:none;stroke-opacity:0.72941176"
       id="path10-5"
       cx="97.595512"
       cy="153.71661"
       r="7.316503" />
    <path
       id="path2424"
       d="m 97.595522,155.51703 c -0.31002,0 -0.62002,-0.10167 -0.88446,-0.30777 l -3.91663,-3.04549 v 4.25345 c 0,0.497 0.403028,0.90021 0.900203,0.90021 h 7.801755 c 0.49718,0 0.90021,-0.40303 0.90021,-0.90021 v -4.25345 l -3.915878,3.04755 c -0.26444,0.20443 -0.57576,0.30571 -0.8852,0.30571 z m -4.495584,-3.87651 3.979644,3.09633 c 0.30363,0.2363 0.72898,0.2363 1.03261,0 l 3.979648,-3.09633 c 0.17535,-0.15002 0.30476,-0.3807 0.30476,-0.62451 0,-0.49717 -0.40322,-0.9002 -0.90021,-0.9002 h -7.801755 c -0.497175,0 -0.900203,0.40303 -0.900203,0.9002 0,0.24381 0.11272,0.47447 0.305506,0.62451 z"
       inkscape:connector-curvature="0"
       style="fill:#fffffd;fill-opacity:1;stroke-width:0.01875423" />
  </g>
</svg>
